<svg width="24" height="24" viewBox="0 0 24 24" fill="none" xmlns="http://www.w3.org/2000/svg">
<g id="typcn:user-delete">
<path id="Vector" d="M21 14H15C14.7348 14 14.4804 13.8946 14.2929 13.7071C14.1054 13.5196 14 13.2652 14 13C14 12.7348 14.1054 12.4804 14.2929 12.2929C14.4804 12.1054 14.7348 12 15 12H21C21.2652 12 21.5196 12.1054 21.7071 12.2929C21.8946 12.4804 22 12.7348 22 13C22 13.2652 21.8946 13.5196 21.7071 13.7071C21.5196 13.8946 21.2652 14 21 14ZM14 9C14 10.381 13.44 11.631 12.536 12.535C11.631 13.44 10.381 14 9 14C7.619 14 6.369 13.44 5.464 12.535C4.56 11.631 4 10.381 4 9C4 7.619 4.56 6.369 5.464 5.465C6.369 4.56 7.619 4 9 4C10.381 4 11.631 4.56 12.536 5.465C13.0009 5.92874 13.3695 6.47977 13.6207 7.08642C13.872 7.69307 14.0009 8.34338 14 9ZM9 15C5.25 15 3 17 3 19C3 20 5.25 21 9 21C12.518 21 15 20 15 19C15 17 12.646 15 9 15Z" fill="black"/>
</g>
</svg>
